<mxfile host="app.diagrams.net" modified="2022-11-09T19:06:36.639Z" agent="5.0 (Windows NT 10.0; Win64; x64) AppleWebKit/537.36 (KHTML, like Gecko) Chrome/107.0.0.0 Safari/537.36" etag="dyFmaSRujSfhLTD-WanF" version="20.5.3" type="github">
  <diagram id="LxvZy6GjhmoczQEZOmLv" name="Страница 1">
    <mxGraphModel dx="1730" dy="898" grid="1" gridSize="10" guides="1" tooltips="1" connect="1" arrows="1" fold="1" page="1" pageScale="1" pageWidth="827" pageHeight="1169" math="0" shadow="0">
      <root>
        <mxCell id="0" />
        <mxCell id="1" parent="0" />
        <mxCell id="wU1Ob-JbCW2nIVemaf7U-4" style="edgeStyle=orthogonalEdgeStyle;rounded=0;orthogonalLoop=1;jettySize=auto;html=1;" edge="1" parent="1" source="wU1Ob-JbCW2nIVemaf7U-1">
          <mxGeometry relative="1" as="geometry">
            <mxPoint x="427" y="85" as="targetPoint" />
          </mxGeometry>
        </mxCell>
        <mxCell id="wU1Ob-JbCW2nIVemaf7U-1" value="" style="ellipse;whiteSpace=wrap;html=1;" vertex="1" parent="1">
          <mxGeometry x="354" y="20" width="146" height="30" as="geometry" />
        </mxCell>
        <mxCell id="wU1Ob-JbCW2nIVemaf7U-2" value="початок" style="text;html=1;strokeColor=none;fillColor=none;align=center;verticalAlign=middle;whiteSpace=wrap;rounded=0;" vertex="1" parent="1">
          <mxGeometry x="397" y="20" width="60" height="30" as="geometry" />
        </mxCell>
        <mxCell id="wU1Ob-JbCW2nIVemaf7U-8" style="edgeStyle=orthogonalEdgeStyle;rounded=0;orthogonalLoop=1;jettySize=auto;html=1;" edge="1" parent="1" source="wU1Ob-JbCW2nIVemaf7U-5">
          <mxGeometry relative="1" as="geometry">
            <mxPoint x="427" y="145" as="targetPoint" />
          </mxGeometry>
        </mxCell>
        <mxCell id="wU1Ob-JbCW2nIVemaf7U-5" value="" style="shape=parallelogram;perimeter=parallelogramPerimeter;whiteSpace=wrap;html=1;fixedSize=1;" vertex="1" parent="1">
          <mxGeometry x="377" y="90" width="100" height="30" as="geometry" />
        </mxCell>
        <mxCell id="wU1Ob-JbCW2nIVemaf7U-6" value="l N" style="text;html=1;strokeColor=none;fillColor=none;align=center;verticalAlign=middle;whiteSpace=wrap;rounded=0;" vertex="1" parent="1">
          <mxGeometry x="400" y="90" width="60" height="30" as="geometry" />
        </mxCell>
        <mxCell id="wU1Ob-JbCW2nIVemaf7U-11" style="edgeStyle=orthogonalEdgeStyle;rounded=0;orthogonalLoop=1;jettySize=auto;html=1;" edge="1" parent="1" source="wU1Ob-JbCW2nIVemaf7U-9" target="wU1Ob-JbCW2nIVemaf7U-10">
          <mxGeometry relative="1" as="geometry" />
        </mxCell>
        <mxCell id="wU1Ob-JbCW2nIVemaf7U-9" value="S=0" style="rounded=0;whiteSpace=wrap;html=1;" vertex="1" parent="1">
          <mxGeometry x="367" y="150" width="123" height="40" as="geometry" />
        </mxCell>
        <mxCell id="wU1Ob-JbCW2nIVemaf7U-13" style="edgeStyle=orthogonalEdgeStyle;rounded=0;orthogonalLoop=1;jettySize=auto;html=1;" edge="1" parent="1" source="wU1Ob-JbCW2nIVemaf7U-10">
          <mxGeometry relative="1" as="geometry">
            <mxPoint x="428.5" y="280" as="targetPoint" />
          </mxGeometry>
        </mxCell>
        <mxCell id="wU1Ob-JbCW2nIVemaf7U-10" value="i=l" style="rounded=0;whiteSpace=wrap;html=1;" vertex="1" parent="1">
          <mxGeometry x="367" y="210" width="123" height="40" as="geometry" />
        </mxCell>
        <mxCell id="wU1Ob-JbCW2nIVemaf7U-16" style="edgeStyle=orthogonalEdgeStyle;rounded=0;orthogonalLoop=1;jettySize=auto;html=1;" edge="1" parent="1" source="wU1Ob-JbCW2nIVemaf7U-14" target="wU1Ob-JbCW2nIVemaf7U-17">
          <mxGeometry relative="1" as="geometry">
            <mxPoint x="540" y="350" as="targetPoint" />
            <Array as="points">
              <mxPoint x="540" y="305" />
            </Array>
          </mxGeometry>
        </mxCell>
        <mxCell id="wU1Ob-JbCW2nIVemaf7U-24" style="edgeStyle=orthogonalEdgeStyle;rounded=0;orthogonalLoop=1;jettySize=auto;html=1;" edge="1" parent="1" source="wU1Ob-JbCW2nIVemaf7U-14" target="wU1Ob-JbCW2nIVemaf7U-25">
          <mxGeometry relative="1" as="geometry">
            <mxPoint x="410" y="470" as="targetPoint" />
            <Array as="points">
              <mxPoint x="280" y="305" />
              <mxPoint x="280" y="440" />
              <mxPoint x="410" y="440" />
            </Array>
          </mxGeometry>
        </mxCell>
        <mxCell id="wU1Ob-JbCW2nIVemaf7U-14" value="i&amp;lt;=N" style="rhombus;whiteSpace=wrap;html=1;" vertex="1" parent="1">
          <mxGeometry x="398.5" y="280" width="60" height="50" as="geometry" />
        </mxCell>
        <mxCell id="wU1Ob-JbCW2nIVemaf7U-19" style="edgeStyle=orthogonalEdgeStyle;rounded=0;orthogonalLoop=1;jettySize=auto;html=1;" edge="1" parent="1" source="wU1Ob-JbCW2nIVemaf7U-17" target="wU1Ob-JbCW2nIVemaf7U-18">
          <mxGeometry relative="1" as="geometry" />
        </mxCell>
        <mxCell id="wU1Ob-JbCW2nIVemaf7U-17" value="S += sqrt(1 + cos(sin(1. * i)) * cos(sin(1. * i))/(1+sin(cos(1.*i))*sin(cos(1.*i))))" style="rounded=0;whiteSpace=wrap;html=1;" vertex="1" parent="1">
          <mxGeometry x="450" y="320" width="200" height="70" as="geometry" />
        </mxCell>
        <mxCell id="wU1Ob-JbCW2nIVemaf7U-21" style="edgeStyle=orthogonalEdgeStyle;rounded=0;orthogonalLoop=1;jettySize=auto;html=1;" edge="1" parent="1" source="wU1Ob-JbCW2nIVemaf7U-18">
          <mxGeometry relative="1" as="geometry">
            <mxPoint x="430" y="260" as="targetPoint" />
            <Array as="points">
              <mxPoint x="540" y="503" />
              <mxPoint x="680" y="503" />
              <mxPoint x="680" y="260" />
              <mxPoint x="560" y="260" />
            </Array>
          </mxGeometry>
        </mxCell>
        <mxCell id="wU1Ob-JbCW2nIVemaf7U-18" value="i++" style="rounded=0;whiteSpace=wrap;html=1;" vertex="1" parent="1">
          <mxGeometry x="490" y="420" width="120" height="15" as="geometry" />
        </mxCell>
        <mxCell id="wU1Ob-JbCW2nIVemaf7U-22" value="+" style="text;html=1;strokeColor=none;fillColor=none;align=center;verticalAlign=middle;whiteSpace=wrap;rounded=0;" vertex="1" parent="1">
          <mxGeometry x="457" y="280" width="60" height="30" as="geometry" />
        </mxCell>
        <mxCell id="wU1Ob-JbCW2nIVemaf7U-28" style="edgeStyle=orthogonalEdgeStyle;rounded=0;orthogonalLoop=1;jettySize=auto;html=1;" edge="1" parent="1" source="wU1Ob-JbCW2nIVemaf7U-25" target="wU1Ob-JbCW2nIVemaf7U-27">
          <mxGeometry relative="1" as="geometry" />
        </mxCell>
        <mxCell id="wU1Ob-JbCW2nIVemaf7U-25" value="S=0" style="rounded=0;whiteSpace=wrap;html=1;" vertex="1" parent="1">
          <mxGeometry x="377" y="470" width="73" height="20" as="geometry" />
        </mxCell>
        <mxCell id="wU1Ob-JbCW2nIVemaf7U-30" style="edgeStyle=orthogonalEdgeStyle;rounded=0;orthogonalLoop=1;jettySize=auto;html=1;" edge="1" parent="1" source="wU1Ob-JbCW2nIVemaf7U-27" target="wU1Ob-JbCW2nIVemaf7U-29">
          <mxGeometry relative="1" as="geometry" />
        </mxCell>
        <mxCell id="wU1Ob-JbCW2nIVemaf7U-27" value="i=l" style="rounded=0;whiteSpace=wrap;html=1;" vertex="1" parent="1">
          <mxGeometry x="377" y="520" width="73" height="20" as="geometry" />
        </mxCell>
        <mxCell id="wU1Ob-JbCW2nIVemaf7U-32" style="edgeStyle=orthogonalEdgeStyle;rounded=0;orthogonalLoop=1;jettySize=auto;html=1;" edge="1" parent="1" source="wU1Ob-JbCW2nIVemaf7U-29" target="wU1Ob-JbCW2nIVemaf7U-31">
          <mxGeometry relative="1" as="geometry" />
        </mxCell>
        <mxCell id="wU1Ob-JbCW2nIVemaf7U-29" value="S += sqrt(1 + cos(sin(1. * i)) * cos(sin(1. * i))/(1+sin(cos(1.*i))*sin(cos(1.*i))))" style="rounded=0;whiteSpace=wrap;html=1;" vertex="1" parent="1">
          <mxGeometry x="299" y="590" width="230" height="80" as="geometry" />
        </mxCell>
        <mxCell id="wU1Ob-JbCW2nIVemaf7U-34" style="edgeStyle=orthogonalEdgeStyle;rounded=0;orthogonalLoop=1;jettySize=auto;html=1;" edge="1" parent="1" source="wU1Ob-JbCW2nIVemaf7U-31">
          <mxGeometry relative="1" as="geometry">
            <mxPoint x="413.5238095238095" y="765.0000000000001" as="targetPoint" />
          </mxGeometry>
        </mxCell>
        <mxCell id="wU1Ob-JbCW2nIVemaf7U-31" value="i++" style="rounded=0;whiteSpace=wrap;html=1;" vertex="1" parent="1">
          <mxGeometry x="383" y="700" width="61" height="30" as="geometry" />
        </mxCell>
        <mxCell id="wU1Ob-JbCW2nIVemaf7U-37" style="edgeStyle=orthogonalEdgeStyle;rounded=0;orthogonalLoop=1;jettySize=auto;html=1;" edge="1" parent="1" source="wU1Ob-JbCW2nIVemaf7U-35">
          <mxGeometry relative="1" as="geometry">
            <mxPoint x="420" y="560" as="targetPoint" />
            <Array as="points">
              <mxPoint x="630" y="795" />
              <mxPoint x="630" y="560" />
              <mxPoint x="620" y="560" />
            </Array>
          </mxGeometry>
        </mxCell>
        <mxCell id="wU1Ob-JbCW2nIVemaf7U-40" style="edgeStyle=orthogonalEdgeStyle;rounded=0;orthogonalLoop=1;jettySize=auto;html=1;" edge="1" parent="1" source="wU1Ob-JbCW2nIVemaf7U-35" target="wU1Ob-JbCW2nIVemaf7U-42">
          <mxGeometry relative="1" as="geometry">
            <mxPoint x="410" y="910" as="targetPoint" />
            <Array as="points">
              <mxPoint x="293" y="795" />
              <mxPoint x="293" y="880" />
              <mxPoint x="410" y="880" />
            </Array>
          </mxGeometry>
        </mxCell>
        <mxCell id="wU1Ob-JbCW2nIVemaf7U-35" value="i&amp;lt;=N" style="rhombus;whiteSpace=wrap;html=1;" vertex="1" parent="1">
          <mxGeometry x="390" y="770" width="46" height="50" as="geometry" />
        </mxCell>
        <mxCell id="wU1Ob-JbCW2nIVemaf7U-38" value="+" style="text;html=1;strokeColor=none;fillColor=none;align=center;verticalAlign=middle;whiteSpace=wrap;rounded=0;" vertex="1" parent="1">
          <mxGeometry x="417" y="770" width="60" height="30" as="geometry" />
        </mxCell>
        <mxCell id="wU1Ob-JbCW2nIVemaf7U-41" value="-" style="text;html=1;strokeColor=none;fillColor=none;align=center;verticalAlign=middle;whiteSpace=wrap;rounded=0;" vertex="1" parent="1">
          <mxGeometry x="317" y="730" width="60" height="30" as="geometry" />
        </mxCell>
        <mxCell id="wU1Ob-JbCW2nIVemaf7U-44" style="edgeStyle=orthogonalEdgeStyle;rounded=0;orthogonalLoop=1;jettySize=auto;html=1;" edge="1" parent="1" source="wU1Ob-JbCW2nIVemaf7U-42">
          <mxGeometry relative="1" as="geometry">
            <mxPoint x="413.5238095238095" y="980" as="targetPoint" />
          </mxGeometry>
        </mxCell>
        <mxCell id="wU1Ob-JbCW2nIVemaf7U-42" value="S" style="shape=document;whiteSpace=wrap;html=1;boundedLbl=1;" vertex="1" parent="1">
          <mxGeometry x="376.5" y="900" width="73" height="40" as="geometry" />
        </mxCell>
        <mxCell id="wU1Ob-JbCW2nIVemaf7U-45" value="1" style="shape=hexagon;perimeter=hexagonPerimeter2;whiteSpace=wrap;html=1;fixedSize=1;" vertex="1" parent="1">
          <mxGeometry x="386.5" y="980" width="53" height="30" as="geometry" />
        </mxCell>
      </root>
    </mxGraphModel>
  </diagram>
</mxfile>
